<?xml version="1.0" encoding="utf-8"?>
<!-- Generator: Adobe Illustrator 17.1.0, SVG Export Plug-In . SVG Version: 6.00 Build 0)  -->
<!DOCTYPE svg PUBLIC "-//W3C//DTD SVG 1.1//EN" "http://www.w3.org/Graphics/SVG/1.1/DTD/svg11.dtd">
<svg version="1.1" id="Layer_1" xmlns="http://www.w3.org/2000/svg" xmlns:xlink="http://www.w3.org/1999/xlink" x="0px" y="0px"
	 viewBox="0 0 300 120" enable-background="new 0 0 300 120" xml:space="preserve">
<g>
	<g>
		
			<linearGradient id="SVGID_1_" gradientUnits="userSpaceOnUse" x1="24.064" y1="76.2142" x2="48.0221" y2="76.2142" gradientTransform="matrix(1 0 0 -1 0 119.89)">
			<stop  offset="0" style="stop-color:#0071BB"/>
			<stop  offset="0.2179" style="stop-color:#0088CE"/>
			<stop  offset="0.4838" style="stop-color:#009CE0"/>
			<stop  offset="0.7465" style="stop-color:#00A9EA"/>
			<stop  offset="1" style="stop-color:#00ADEE"/>
		</linearGradient>
		<path fill="url(#SVGID_1_)" d="M27.6,35.2c-4.7,4.7-4.7,12.3,0,16.9c4.7,4.7,12.3,4.7,16.9,0c4.7-4.7,4.7-12.3,0-16.9
			C39.8,30.5,32.2,30.5,27.6,35.2z"/>
		
			<linearGradient id="SVGID_2_" gradientUnits="userSpaceOnUse" x1="6.137247e-02" y1="63.7021" x2="72.0248" y2="63.7021" gradientTransform="matrix(1 0 0 -1 0 119.89)">
			<stop  offset="0" style="stop-color:#0071BB"/>
			<stop  offset="0.2179" style="stop-color:#0088CE"/>
			<stop  offset="0.4838" style="stop-color:#009CE0"/>
			<stop  offset="0.7465" style="stop-color:#00A9EA"/>
			<stop  offset="1" style="stop-color:#00ADEE"/>
		</linearGradient>
		<path fill="url(#SVGID_2_)" d="M67.2,61.8L67.2,61.8c8-13.8,6.1-31.8-5.7-43.6c-14.1-14-36.8-14.1-50.9,0c-14.1,14-14,36.8,0,50.9
			c7,7,16.2,10.5,25.4,10.5l0,14.9l0,0v10.1L63.4,67c1.3-1.5,2.4-3,3.4-4.6L67.2,61.8z M19.2,60.5c-9.3-9.3-9.3-24.3,0-33.6
			c9.3-9.3,24.3-9.3,33.6,0c9.3,9.3,9.3,24.3,0,33.6C43.6,69.8,28.5,69.8,19.2,60.5z"/>
		<g opacity="0.3">
			<path fill="#FFFFFF" d="M27.6,35.2c-2.1,2.1-3.3,4.9-3.5,7.7c3.7,0.5,7.5,0.8,11.4,0.8c4.3,0,8.5-0.3,12.5-0.9
				c-0.2-2.8-1.4-5.4-3.5-7.6C39.9,30.5,32.3,30.5,27.6,35.2z"/>
			<path fill="#FFFFFF" d="M10.7,18.2c-5,5-8.2,11.1-9.6,17.6c3.5,1.8,7.3,3.4,11.5,4.7c0.7-5,2.9-9.8,6.7-13.6
				c9.3-9.3,24.3-9.3,33.6,0c3.7,3.7,5.9,8.4,6.7,13.3c4.2-1.3,8-3,11.5-4.9c-1.5-6.2-4.6-12.2-9.5-17C47.5,4.2,24.7,4.2,10.7,18.2z
				"/>
		</g>
	</g>
	<g>
		<g>
			
				<linearGradient id="SVGID_3_" gradientUnits="userSpaceOnUse" x1="121.2158" y1="16.8765" x2="121.2158" y2="27.6285" gradientTransform="matrix(1 0 0 -1 0 119.89)">
				<stop  offset="0" style="stop-color:#323031"/>
				<stop  offset="6.030000e-02" style="stop-color:#363536"/>
				<stop  offset="0.3799" style="stop-color:#49494A"/>
				<stop  offset="0.6954" style="stop-color:#545557"/>
				<stop  offset="1" style="stop-color:#58595B"/>
			</linearGradient>
			<path fill="url(#SVGID_3_)" d="M116.9,103v-9.6c0-0.3,0.1-0.6,0.3-0.8s0.5-0.3,0.8-0.3h3.8c1.1,0,1.9,0.2,2.5,0.7
				c0.6,0.5,0.9,1.2,0.9,2c0,0.5-0.1,1-0.3,1.4c-0.2,0.4-0.5,0.6-0.9,0.8c0.5,0.2,0.9,0.6,1.2,1c0.3,0.4,0.4,0.9,0.4,1.6
				c0,1-0.3,1.9-1,2.4c-0.7,0.6-1.6,0.8-2.8,0.8L116.9,103L116.9,103z M119,96.4h2.5c0.5,0,0.9-0.1,1.2-0.3s0.4-0.5,0.4-0.9
				c0-0.4-0.1-0.7-0.4-0.9c-0.2-0.2-0.6-0.2-1.2-0.2H119L119,96.4L119,96.4z M119,101.1h2.6c0.6,0,1-0.1,1.3-0.3
				c0.3-0.2,0.4-0.6,0.4-1.1s-0.1-0.9-0.4-1.1c-0.3-0.2-0.7-0.3-1.3-0.3H119L119,101.1L119,101.1z"/>
			
				<linearGradient id="SVGID_4_" gradientUnits="userSpaceOnUse" x1="130.4297" y1="16.7215" x2="130.4297" y2="25.1905" gradientTransform="matrix(1 0 0 -1 0 119.89)">
				<stop  offset="0" style="stop-color:#323031"/>
				<stop  offset="6.030000e-02" style="stop-color:#363536"/>
				<stop  offset="0.3799" style="stop-color:#49494A"/>
				<stop  offset="0.6954" style="stop-color:#545557"/>
				<stop  offset="1" style="stop-color:#58595B"/>
			</linearGradient>
			<path fill="url(#SVGID_4_)" d="M134,94.7v4.9c0,1.5-0.4,2.4-1.1,2.9c-0.8,0.5-1.6,0.7-2.5,0.7c-0.9,0-1.7-0.3-2.4-0.8
				c-0.7-0.5-1.1-1.4-1.1-2.8v-4.9h2.1v5.3c0,0.5,0.1,0.9,0.4,1.1s0.6,0.3,1,0.3s0.7-0.1,1-0.3c0.3-0.2,0.4-0.6,0.4-1.1v-4.2
				c0-0.3,0.1-0.5,0.3-0.8c0.2-0.2,0.4-0.3,0.7-0.3H134z"/>
			
				<linearGradient id="SVGID_5_" gradientUnits="userSpaceOnUse" x1="138.6642" y1="16.7205" x2="138.6642" y2="25.3795" gradientTransform="matrix(1 0 0 -1 0 119.89)">
				<stop  offset="0" style="stop-color:#323031"/>
				<stop  offset="6.030000e-02" style="stop-color:#363536"/>
				<stop  offset="0.3799" style="stop-color:#49494A"/>
				<stop  offset="0.6954" style="stop-color:#545557"/>
				<stop  offset="1" style="stop-color:#58595B"/>
			</linearGradient>
			<path fill="url(#SVGID_5_)" d="M135.1,100.3h2.1c0,0.4,0.2,0.7,0.5,0.9c0.3,0.2,0.7,0.3,1.2,0.3c0.4,0,0.7-0.1,0.9-0.2
				c0.2-0.1,0.4-0.3,0.4-0.6c0-0.4-0.4-0.7-1.3-0.8c-0.4-0.1-0.6-0.1-0.8-0.2c-1.1-0.3-1.8-0.6-2.2-1c-0.4-0.4-0.6-0.9-0.6-1.5
				c0-0.8,0.3-1.4,0.9-2c0.6-0.5,1.4-0.7,2.4-0.7c1.1,0,1.9,0.2,2.5,0.7c0.6,0.5,0.9,1.2,0.9,2h-1.3c-0.4,0-0.7-0.2-0.9-0.5
				c-0.1-0.1-0.2-0.2-0.2-0.2c-0.2-0.2-0.6-0.3-1-0.3c-0.4,0-0.7,0.1-0.9,0.2c-0.2,0.1-0.3,0.3-0.3,0.6c0,0.3,0.5,0.6,1.6,0.8
				c0.1,0,0.2,0.1,0.3,0.1c0.1,0,0.2,0,0.3,0c1,0.3,1.8,0.6,2.2,0.9c0.4,0.4,0.6,0.9,0.6,1.5c0,0.9-0.3,1.6-1,2.1
				c-0.6,0.5-1.5,0.7-2.7,0.7c-1.2,0-2-0.2-2.6-0.7C135.4,102,135.1,101.3,135.1,100.3L135.1,100.3L135.1,100.3z"/>
			
				<linearGradient id="SVGID_6_" gradientUnits="userSpaceOnUse" x1="144.7943" y1="16.8775" x2="144.7943" y2="27.6285" gradientTransform="matrix(1 0 0 -1 0 119.89)">
				<stop  offset="0" style="stop-color:#323031"/>
				<stop  offset="6.030000e-02" style="stop-color:#363536"/>
				<stop  offset="0.3799" style="stop-color:#49494A"/>
				<stop  offset="0.6954" style="stop-color:#545557"/>
				<stop  offset="1" style="stop-color:#58595B"/>
			</linearGradient>
			<path fill="url(#SVGID_6_)" d="M143.7,92.3h1.1c0.3,0,0.5,0.1,0.7,0.3c0.2,0.2,0.3,0.5,0.3,0.8V94h-2.1V92.3z M143.7,94.7h1.1
				c0.3,0,0.5,0.1,0.7,0.3c0.2,0.2,0.3,0.5,0.3,0.8v7.2h-2.1V94.7z"/>
			
				<linearGradient id="SVGID_7_" gradientUnits="userSpaceOnUse" x1="151.3938" y1="16.8785" x2="151.3938" y2="25.3785" gradientTransform="matrix(1 0 0 -1 0 119.89)">
				<stop  offset="0" style="stop-color:#323031"/>
				<stop  offset="6.030000e-02" style="stop-color:#363536"/>
				<stop  offset="0.3799" style="stop-color:#49494A"/>
				<stop  offset="0.6954" style="stop-color:#545557"/>
				<stop  offset="1" style="stop-color:#58595B"/>
			</linearGradient>
			<path fill="url(#SVGID_7_)" d="M154.9,103h-1.1c-0.3,0-0.6-0.1-0.7-0.3c-0.2-0.2-0.3-0.5-0.3-0.8v-4.2c0-0.5-0.1-0.9-0.4-1.1
				c-0.3-0.2-0.6-0.3-1-0.3s-0.7,0.1-1,0.3c-0.3,0.2-0.4,0.6-0.4,1.1v5.3h-2.1v-4.9c0-1.4,0.4-2.4,1.1-2.8c0.7-0.5,1.5-0.7,2.4-0.8
				c0.9,0,1.7,0.2,2.5,0.7c0.8,0.5,1.1,1.4,1.1,2.9L154.9,103L154.9,103z"/>
			
				<linearGradient id="SVGID_8_" gradientUnits="userSpaceOnUse" x1="159.7667" y1="16.7215" x2="159.7667" y2="25.3775" gradientTransform="matrix(1 0 0 -1 0 119.89)">
				<stop  offset="0" style="stop-color:#323031"/>
				<stop  offset="6.030000e-02" style="stop-color:#363536"/>
				<stop  offset="0.3799" style="stop-color:#49494A"/>
				<stop  offset="0.6954" style="stop-color:#545557"/>
				<stop  offset="1" style="stop-color:#58595B"/>
			</linearGradient>
			<path fill="url(#SVGID_8_)" d="M161.9,100.4h1.5c-0.2,0.9-0.7,1.5-1.3,2c-0.6,0.5-1.4,0.7-2.4,0.7c-1.2,0-2.1-0.4-2.7-1.2
				c-0.7-0.8-1-1.8-1-3.2c0-1.3,0.3-2.4,0.9-3.1c0.7-0.8,1.6-1.2,2.7-1.2c1.2,0,2.2,0.4,2.8,1.1c0.7,0.8,1,1.8,1,3.2
				c0,0.1,0,0.2,0,0.2s0,0.1,0,0.1c0,0.1,0,0.2,0,0.2h-5.3c0,0.6,0.2,1.1,0.5,1.4c0.3,0.3,0.7,0.5,1.2,0.5c0.3,0,0.6-0.1,0.9-0.2
				c0.1,0,0.1-0.1,0.2-0.1c0.1-0.1,0.1-0.1,0.2-0.2c0-0.1,0.1-0.1,0.2-0.2C161.4,100.5,161.6,100.4,161.9,100.4z M158.2,98h3.1
				c0-0.6-0.2-1-0.4-1.2c-0.3-0.3-0.6-0.4-1.1-0.4c-0.4,0-0.8,0.1-1.1,0.4C158.4,97.1,158.2,97.5,158.2,98z"/>
			
				<linearGradient id="SVGID_9_" gradientUnits="userSpaceOnUse" x1="168.2002" y1="16.7205" x2="168.2002" y2="25.3795" gradientTransform="matrix(1 0 0 -1 0 119.89)">
				<stop  offset="0" style="stop-color:#323031"/>
				<stop  offset="6.030000e-02" style="stop-color:#363536"/>
				<stop  offset="0.3799" style="stop-color:#49494A"/>
				<stop  offset="0.6954" style="stop-color:#545557"/>
				<stop  offset="1" style="stop-color:#58595B"/>
			</linearGradient>
			<path fill="url(#SVGID_9_)" d="M164.6,100.3h2.1c0,0.4,0.2,0.7,0.5,0.9c0.3,0.2,0.7,0.3,1.2,0.3c0.4,0,0.7-0.1,0.9-0.2
				c0.2-0.1,0.4-0.3,0.4-0.6c0-0.4-0.4-0.7-1.3-0.8c-0.4-0.1-0.6-0.1-0.8-0.2c-1.1-0.3-1.8-0.6-2.2-1c-0.4-0.4-0.6-0.9-0.6-1.5
				c0-0.8,0.3-1.4,0.9-2c0.6-0.5,1.4-0.7,2.4-0.7c1.1,0,1.9,0.2,2.5,0.7c0.6,0.5,0.9,1.2,0.9,2h-1.3c-0.4,0-0.7-0.2-0.9-0.5
				c-0.1-0.1-0.2-0.2-0.2-0.2c-0.2-0.2-0.6-0.3-1-0.3c-0.4,0-0.7,0.1-0.9,0.2c-0.2,0.1-0.3,0.3-0.3,0.6c0,0.3,0.5,0.6,1.6,0.8
				c0.1,0,0.2,0.1,0.3,0.1c0.1,0,0.2,0,0.3,0c1,0.3,1.8,0.6,2.2,0.9c0.4,0.4,0.6,0.9,0.6,1.5c0,0.9-0.3,1.6-1,2.1
				c-0.6,0.5-1.5,0.7-2.7,0.7c-1.2,0-2-0.2-2.6-0.7C164.9,102,164.6,101.3,164.6,100.3L164.6,100.3L164.6,100.3z"/>
			
				<linearGradient id="SVGID_10_" gradientUnits="userSpaceOnUse" x1="176.4972" y1="16.7205" x2="176.4972" y2="25.3795" gradientTransform="matrix(1 0 0 -1 0 119.89)">
				<stop  offset="0" style="stop-color:#323031"/>
				<stop  offset="6.030000e-02" style="stop-color:#363536"/>
				<stop  offset="0.3799" style="stop-color:#49494A"/>
				<stop  offset="0.6954" style="stop-color:#545557"/>
				<stop  offset="1" style="stop-color:#58595B"/>
			</linearGradient>
			<path fill="url(#SVGID_10_)" d="M172.9,100.3h2.1c0,0.4,0.2,0.7,0.5,0.9c0.3,0.2,0.7,0.3,1.2,0.3c0.4,0,0.7-0.1,0.9-0.2
				c0.2-0.1,0.4-0.3,0.4-0.6c0-0.4-0.4-0.7-1.3-0.8c-0.4-0.1-0.6-0.1-0.8-0.2c-1.1-0.3-1.8-0.6-2.2-1c-0.4-0.4-0.6-0.9-0.6-1.5
				c0-0.8,0.3-1.4,0.9-2c0.6-0.5,1.4-0.7,2.4-0.7c1.1,0,1.9,0.2,2.5,0.7c0.6,0.5,0.9,1.2,0.9,2h-1.3c-0.4,0-0.7-0.2-0.9-0.5
				c-0.1-0.1-0.2-0.2-0.2-0.2c-0.2-0.2-0.6-0.3-1-0.3c-0.4,0-0.7,0.1-0.9,0.2c-0.2,0.1-0.3,0.3-0.3,0.6c0,0.3,0.5,0.6,1.6,0.8
				c0.1,0,0.2,0.1,0.3,0.1c0.1,0,0.2,0,0.3,0c1,0.3,1.8,0.6,2.2,0.9c0.4,0.4,0.6,0.9,0.6,1.5c0,0.9-0.3,1.6-1,2.1
				c-0.6,0.5-1.5,0.7-2.7,0.7c-1.2,0-2-0.2-2.6-0.7C173.2,102,172.9,101.3,172.9,100.3L172.9,100.3L172.9,100.3z"/>
			
				<linearGradient id="SVGID_11_" gradientUnits="userSpaceOnUse" x1="189.4562" y1="16.7225" x2="189.4562" y2="27.6595" gradientTransform="matrix(1 0 0 -1 0 119.89)">
				<stop  offset="0" style="stop-color:#323031"/>
				<stop  offset="6.030000e-02" style="stop-color:#363536"/>
				<stop  offset="0.3799" style="stop-color:#49494A"/>
				<stop  offset="0.6954" style="stop-color:#545557"/>
				<stop  offset="1" style="stop-color:#58595B"/>
			</linearGradient>
			<path fill="url(#SVGID_11_)" d="M191.2,92.2h1c0.3,0,0.5,0.1,0.7,0.3c0.2,0.2,0.3,0.5,0.3,0.7v6.1c0,1.5-0.4,2.5-1.3,3
				c-0.8,0.5-1.7,0.8-2.7,0.8c-0.5,0-1-0.1-1.6-0.3s-0.9-0.5-1.2-0.9c-0.6-0.8-0.9-1.8-0.9-3.2c0-1.3,0.3-2.4,0.9-3.2
				c0.6-0.8,1.4-1.2,2.4-1.2c0.5,0,1,0.1,1.3,0.3c0.4,0.2,0.7,0.6,1,1L191.2,92.2L191.2,92.2z M187.7,98.8c0,0.8,0.2,1.5,0.5,1.9
				c0.3,0.4,0.7,0.7,1.3,0.7c0.6,0,1-0.2,1.3-0.7c0.3-0.4,0.4-1.1,0.4-1.9c0-0.8-0.2-1.3-0.5-1.8c-0.3-0.4-0.8-0.6-1.3-0.6
				c-0.5,0-0.9,0.2-1.3,0.7C187.9,97.5,187.7,98,187.7,98.8z"/>
			
				<linearGradient id="SVGID_12_" gradientUnits="userSpaceOnUse" x1="198.1357" y1="16.7215" x2="198.1357" y2="25.3775" gradientTransform="matrix(1 0 0 -1 0 119.89)">
				<stop  offset="0" style="stop-color:#323031"/>
				<stop  offset="6.030000e-02" style="stop-color:#363536"/>
				<stop  offset="0.3799" style="stop-color:#49494A"/>
				<stop  offset="0.6954" style="stop-color:#545557"/>
				<stop  offset="1" style="stop-color:#58595B"/>
			</linearGradient>
			<path fill="url(#SVGID_12_)" d="M200.2,100.4h1.5c-0.2,0.9-0.7,1.5-1.3,2c-0.6,0.5-1.4,0.7-2.4,0.7c-1.2,0-2.1-0.4-2.7-1.2
				c-0.7-0.8-1-1.8-1-3.2c0-1.3,0.3-2.4,0.9-3.1c0.7-0.8,1.6-1.2,2.7-1.2c1.2,0,2.2,0.4,2.8,1.1c0.7,0.8,1,1.8,1,3.2
				c0,0.1,0,0.2,0,0.2s0,0.1,0,0.1c0,0.1,0,0.2,0,0.2h-5.3c0,0.6,0.2,1.1,0.5,1.4c0.3,0.3,0.7,0.5,1.2,0.5c0.3,0,0.6-0.1,0.9-0.2
				c0.1,0,0.1-0.1,0.2-0.1c0.1-0.1,0.1-0.1,0.2-0.2c0-0.1,0.1-0.1,0.2-0.2C199.8,100.5,200,100.4,200.2,100.4z M196.6,98h3.1
				c0-0.6-0.2-1-0.4-1.2c-0.3-0.3-0.6-0.4-1.1-0.4c-0.4,0-0.8,0.1-1.1,0.4C196.7,97.1,196.6,97.5,196.6,98z"/>
			
				<linearGradient id="SVGID_13_" gradientUnits="userSpaceOnUse" x1="207.0892" y1="16.8785" x2="207.0892" y2="25.1915" gradientTransform="matrix(1 0 0 -1 0 119.89)">
				<stop  offset="0" style="stop-color:#323031"/>
				<stop  offset="6.030000e-02" style="stop-color:#363536"/>
				<stop  offset="0.3799" style="stop-color:#49494A"/>
				<stop  offset="0.6954" style="stop-color:#545557"/>
				<stop  offset="1" style="stop-color:#58595B"/>
			</linearGradient>
			<path fill="url(#SVGID_13_)" d="M208.2,103H206l-2.8-8.3h2.3l1.6,5.8l1.4-5.1c0.2-0.5,0.5-0.8,1-0.8h1.6L208.2,103z"/>
			
				<linearGradient id="SVGID_14_" gradientUnits="userSpaceOnUse" x1="215.8897" y1="16.7215" x2="215.8897" y2="25.3775" gradientTransform="matrix(1 0 0 -1 0 119.89)">
				<stop  offset="0" style="stop-color:#323031"/>
				<stop  offset="6.030000e-02" style="stop-color:#363536"/>
				<stop  offset="0.3799" style="stop-color:#49494A"/>
				<stop  offset="0.6954" style="stop-color:#545557"/>
				<stop  offset="1" style="stop-color:#58595B"/>
			</linearGradient>
			<path fill="url(#SVGID_14_)" d="M218,100.4h1.5c-0.2,0.9-0.7,1.5-1.3,2c-0.6,0.5-1.4,0.7-2.4,0.7c-1.2,0-2.1-0.4-2.7-1.2
				c-0.7-0.8-1-1.8-1-3.2c0-1.3,0.3-2.4,0.9-3.1c0.7-0.8,1.6-1.2,2.7-1.2c1.2,0,2.2,0.4,2.8,1.1c0.7,0.8,1,1.8,1,3.2
				c0,0.1,0,0.2,0,0.2s0,0.1,0,0.1c0,0.1,0,0.2,0,0.2h-5.3c0,0.6,0.2,1.1,0.5,1.4c0.3,0.3,0.7,0.5,1.2,0.5c0.3,0,0.6-0.1,0.9-0.2
				c0.1,0,0.1-0.1,0.2-0.1c0.1-0.1,0.1-0.1,0.2-0.2c0-0.1,0.1-0.1,0.2-0.2C217.5,100.5,217.7,100.4,218,100.4z M214.3,98h3.1
				c0-0.6-0.2-1-0.4-1.2c-0.3-0.3-0.6-0.4-1.1-0.4c-0.4,0-0.8,0.1-1.1,0.4C214.5,97.1,214.3,97.5,214.3,98z"/>
			
				<linearGradient id="SVGID_15_" gradientUnits="userSpaceOnUse" x1="222.0642" y1="16.8785" x2="222.0642" y2="27.6285" gradientTransform="matrix(1 0 0 -1 0 119.89)">
				<stop  offset="0" style="stop-color:#323031"/>
				<stop  offset="6.030000e-02" style="stop-color:#363536"/>
				<stop  offset="0.3799" style="stop-color:#49494A"/>
				<stop  offset="0.6954" style="stop-color:#545557"/>
				<stop  offset="1" style="stop-color:#58595B"/>
			</linearGradient>
			<path fill="url(#SVGID_15_)" d="M221,92.3h1.1c0.3,0,0.5,0.1,0.7,0.3c0.2,0.2,0.3,0.4,0.3,0.7v9.7H221V92.3z"/>
			
				<linearGradient id="SVGID_16_" gradientUnits="userSpaceOnUse" x1="227.9958" y1="16.725" x2="227.9958" y2="25.3853" gradientTransform="matrix(1 0 0 -1 0 119.89)">
				<stop  offset="0" style="stop-color:#323031"/>
				<stop  offset="6.030000e-02" style="stop-color:#363536"/>
				<stop  offset="0.3799" style="stop-color:#49494A"/>
				<stop  offset="0.6954" style="stop-color:#545557"/>
				<stop  offset="1" style="stop-color:#58595B"/>
			</linearGradient>
			<path fill="url(#SVGID_16_)" d="M225.4,102.3c-0.4-0.4-0.7-0.9-0.9-1.5c-0.2-0.6-0.3-1.3-0.3-2c0-0.6,0.1-1.1,0.2-1.7
				s0.4-1,0.7-1.4c0.5-0.6,1.2-1,2-1.1c0.8-0.1,1.6,0,2.3,0.2c0.8,0.3,1.3,0.9,1.7,1.6c0.3,0.7,0.5,1.5,0.5,2.4
				c0,0.7-0.1,1.2-0.2,1.7c-0.1,0.5-0.3,0.9-0.6,1.2c-0.5,0.7-1.1,1.1-1.9,1.3c-0.7,0.2-1.3,0.2-2,0
				C226.4,102.9,225.9,102.6,225.4,102.3z M226.9,96.8c-0.4,0.5-0.6,1.2-0.6,2.1c0,0.9,0.2,1.6,0.5,2c0.1,0.2,0.3,0.3,0.6,0.4
				c0.3,0.1,0.6,0.1,0.9,0c0.3-0.1,0.6-0.3,0.8-0.7s0.4-1,0.4-1.8c0-0.8-0.1-1.3-0.4-1.7c-0.2-0.4-0.5-0.6-0.8-0.7
				c-0.3-0.1-0.6-0.1-0.9,0C227.3,96.5,227.1,96.6,226.9,96.8z"/>
			
				<linearGradient id="SVGID_17_" gradientUnits="userSpaceOnUse" x1="236.8408" y1="13.8155" x2="236.8408" y2="25.3775" gradientTransform="matrix(1 0 0 -1 0 119.89)">
				<stop  offset="0" style="stop-color:#323031"/>
				<stop  offset="6.030000e-02" style="stop-color:#363536"/>
				<stop  offset="0.3799" style="stop-color:#49494A"/>
				<stop  offset="0.6954" style="stop-color:#545557"/>
				<stop  offset="1" style="stop-color:#58595B"/>
			</linearGradient>
			<path fill="url(#SVGID_17_)" d="M235.1,105c0,0.3-0.1,0.5-0.3,0.8c-0.2,0.2-0.4,0.3-0.7,0.3h-1v-7.8c0-1.5,0.4-2.5,1.3-3
				c0.8-0.5,1.7-0.8,2.7-0.8c0.5,0,1,0.1,1.5,0.3c0.5,0.2,0.9,0.5,1.2,0.9c0.6,0.8,0.9,1.9,0.9,3.1c0,1.3-0.3,2.4-0.9,3.2
				c-0.6,0.8-1.4,1.2-2.4,1.2c-0.5,0-1-0.1-1.3-0.3c-0.4-0.2-0.7-0.5-1-1L235.1,105L235.1,105z M238.6,98.9c0-0.8-0.2-1.4-0.5-1.9
				c-0.3-0.4-0.7-0.7-1.3-0.7c-0.6,0-1,0.2-1.3,0.7c-0.3,0.4-0.4,1-0.4,1.9c0,0.8,0.2,1.4,0.5,1.8c0.3,0.4,0.7,0.7,1.3,0.7
				c0.5,0,0.9-0.2,1.3-0.7C238.4,100.2,238.6,99.6,238.6,98.9z"/>
			
				<linearGradient id="SVGID_18_" gradientUnits="userSpaceOnUse" x1="248.0083" y1="16.8785" x2="248.0083" y2="25.3785" gradientTransform="matrix(1 0 0 -1 0 119.89)">
				<stop  offset="0" style="stop-color:#323031"/>
				<stop  offset="6.030000e-02" style="stop-color:#363536"/>
				<stop  offset="0.3799" style="stop-color:#49494A"/>
				<stop  offset="0.6954" style="stop-color:#545557"/>
				<stop  offset="1" style="stop-color:#58595B"/>
			</linearGradient>
			<path fill="url(#SVGID_18_)" d="M249.1,103H247v-4.9v-0.4c0-0.5-0.1-0.9-0.4-1.1c-0.3-0.2-0.6-0.3-1-0.3s-0.7,0.1-1,0.3
				c-0.3,0.2-0.4,0.6-0.4,1.1v5.3H242v-4.9c0-1.4,0.4-2.4,1.1-2.8c0.7-0.5,1.5-0.7,2.4-0.8c0.5,0,0.9,0.1,1.4,0.2
				c0.4,0.1,0.9,0.3,1.2,0.6c0.3-0.3,0.7-0.5,1.1-0.6c0.4-0.1,0.9-0.2,1.3-0.2c0.9,0,1.7,0.2,2.5,0.7c0.8,0.5,1.1,1.4,1.1,2.9v4.9
				H253c-0.3,0-0.6-0.1-0.7-0.3c-0.2-0.2-0.3-0.5-0.3-0.8v-4.2c0-0.5-0.1-0.9-0.4-1.1c-0.3-0.2-0.6-0.3-1-0.3c-0.4,0-0.7,0.1-1,0.3
				s-0.4,0.6-0.4,1.1v0.4L249.1,103L249.1,103z"/>
			
				<linearGradient id="SVGID_19_" gradientUnits="userSpaceOnUse" x1="259.1128" y1="16.7215" x2="259.1128" y2="25.3775" gradientTransform="matrix(1 0 0 -1 0 119.89)">
				<stop  offset="0" style="stop-color:#323031"/>
				<stop  offset="6.030000e-02" style="stop-color:#363536"/>
				<stop  offset="0.3799" style="stop-color:#49494A"/>
				<stop  offset="0.6954" style="stop-color:#545557"/>
				<stop  offset="1" style="stop-color:#58595B"/>
			</linearGradient>
			<path fill="url(#SVGID_19_)" d="M261.2,100.4h1.5c-0.2,0.9-0.7,1.5-1.3,2c-0.6,0.5-1.4,0.7-2.4,0.7c-1.2,0-2.1-0.4-2.7-1.2
				c-0.7-0.8-1-1.8-1-3.2c0-1.3,0.3-2.4,0.9-3.1c0.7-0.8,1.6-1.2,2.7-1.2c1.2,0,2.2,0.4,2.8,1.1c0.7,0.8,1,1.8,1,3.2
				c0,0.1,0,0.2,0,0.2s0,0.1,0,0.1c0,0.1,0,0.2,0,0.2h-5.3c0,0.6,0.2,1.1,0.5,1.4c0.3,0.3,0.7,0.5,1.2,0.5c0.3,0,0.6-0.1,0.9-0.2
				c0.1,0,0.1-0.1,0.2-0.1s0.1-0.1,0.2-0.2c0-0.1,0.1-0.1,0.2-0.2C260.8,100.5,261,100.4,261.2,100.4z M257.5,98h3.1
				c0-0.6-0.2-1-0.4-1.2c-0.3-0.3-0.6-0.4-1.1-0.4c-0.4,0-0.8,0.1-1.1,0.4C257.7,97.1,257.6,97.5,257.5,98z"/>
			
				<linearGradient id="SVGID_20_" gradientUnits="userSpaceOnUse" x1="267.6698" y1="16.8785" x2="267.6698" y2="25.3785" gradientTransform="matrix(1 0 0 -1 0 119.89)">
				<stop  offset="0" style="stop-color:#323031"/>
				<stop  offset="6.030000e-02" style="stop-color:#363536"/>
				<stop  offset="0.3799" style="stop-color:#49494A"/>
				<stop  offset="0.6954" style="stop-color:#545557"/>
				<stop  offset="1" style="stop-color:#58595B"/>
			</linearGradient>
			<path fill="url(#SVGID_20_)" d="M271.2,103h-1.1c-0.3,0-0.6-0.1-0.7-0.3c-0.2-0.2-0.3-0.5-0.3-0.8v-4.2c0-0.5-0.1-0.9-0.4-1.1
				c-0.3-0.2-0.6-0.3-1-0.3s-0.7,0.1-1,0.3c-0.3,0.2-0.4,0.6-0.4,1.1v5.3h-2.1v-4.9c0-1.4,0.4-2.4,1.1-2.8c0.7-0.5,1.5-0.7,2.4-0.8
				c0.9,0,1.7,0.2,2.5,0.7c0.8,0.5,1.1,1.4,1.1,2.9L271.2,103L271.2,103z"/>
			
				<linearGradient id="SVGID_21_" gradientUnits="userSpaceOnUse" x1="274.4092" y1="16.8539" x2="274.4092" y2="27.6285" gradientTransform="matrix(1 0 0 -1 0 119.89)">
				<stop  offset="0" style="stop-color:#323031"/>
				<stop  offset="6.030000e-02" style="stop-color:#363536"/>
				<stop  offset="0.3799" style="stop-color:#49494A"/>
				<stop  offset="0.6954" style="stop-color:#545557"/>
				<stop  offset="1" style="stop-color:#58595B"/>
			</linearGradient>
			<path fill="url(#SVGID_21_)" d="M276.1,103c-0.7,0-1.4,0-2.2,0c-0.8-0.1-1.2-0.6-1.2-1.5v-9.2h1.1c0.3,0,0.5,0.1,0.7,0.3
				c0.2,0.2,0.3,0.5,0.3,0.8v1.4h1.3v0.4c0,0.3-0.1,0.6-0.3,0.8c-0.2,0.2-0.4,0.3-0.7,0.3h-0.2v4.6c0,0.4,0.2,0.5,0.6,0.5h0.6
				L276.1,103L276.1,103z"/>
		</g>
		<g>
			<g>
				<g>
					
						<linearGradient id="SVGID_22_" gradientUnits="userSpaceOnUse" x1="258.1742" y1="31.8565" x2="258.1742" y2="77.9075" gradientTransform="matrix(1 0 0 -1 0 119.89)">
						<stop  offset="0" style="stop-color:#323031"/>
						<stop  offset="6.030000e-02" style="stop-color:#363536"/>
						<stop  offset="0.3799" style="stop-color:#49494A"/>
						<stop  offset="0.6954" style="stop-color:#545557"/>
						<stop  offset="1" style="stop-color:#58595B"/>
					</linearGradient>
					<path fill="url(#SVGID_22_)" d="M238.6,72.6h11.3c0.1,2.2,0.9,3.9,2.5,5c1.7,1.1,3.9,1.7,6.6,1.7c2,0,3.7-0.4,5.2-1.2
						c1.3-0.8,2-1.8,2-3.2c0-2-2.3-3.5-7-4.5c-2-0.3-3.5-0.7-4.5-1c-5.9-1.4-9.8-3.2-11.8-5.2c-2.2-2-3.3-4.7-3.3-8
						c0-4.2,1.6-7.7,4.8-10.5c3.3-2.5,7.6-3.8,13-3.8c5.8,0,10.4,1.3,13.8,3.8c3.2,2.8,4.9,6.4,5.2,10.8h-7.1
						c-2.1,0-3.7-0.9-4.8-2.8c-0.4-0.4-0.9-0.9-1.3-1.3c-1.3-1-3.2-1.5-5.5-1.5c-2.2,0-3.9,0.3-5,1c-1,0.7-1.5,1.7-1.5,3
						c0,1.8,2.9,3.3,8.6,4.5c0.7,0.2,1.2,0.4,1.7,0.5c0.5,0.1,1,0.2,1.4,0.2c5.7,1.4,9.6,3.1,11.8,5c2.1,2,3.2,4.7,3.2,8
						c0,4.9-1.8,8.6-5.3,11.3c-3.3,2.4-8.3,3.7-15,3.7c-6.3,0-11-1.3-14.1-3.8c-3.2-2.5-4.8-6.3-4.8-11.1L238.6,72.6L238.6,72.6z"/>
				</g>
				<g>
					
						<linearGradient id="SVGID_23_" gradientUnits="userSpaceOnUse" x1="107.3047" y1="16.8795" x2="107.3047" y2="75.6415" gradientTransform="matrix(1 0 0 -1 0 119.89)">
						<stop  offset="0" style="stop-color:#323031"/>
						<stop  offset="6.030000e-02" style="stop-color:#363536"/>
						<stop  offset="0.3799" style="stop-color:#49494A"/>
						<stop  offset="0.6954" style="stop-color:#545557"/>
						<stop  offset="1" style="stop-color:#58595B"/>
					</linearGradient>
					<path fill="url(#SVGID_23_)" d="M92.5,102.7v-8.9h3.1c2.2,0,3.9-0.5,5.1-1.5c1.2-1,1.5-2.7,0.7-5l-15.1-43h12.5l8.8,30.5
						l7.6-26.6c0.6-2.6,2.4-3.9,5.2-3.9h7.8l-16.6,49.2c-1.3,3.6-2.9,6.1-4.9,7.6c-1.9,1.3-5.1,1.9-9.6,1.9c-0.3,0-0.7,0-1.1,0
						c-0.4,0-0.8,0-1.1,0c-0.3-0.1-0.7-0.2-1.2-0.2C93.3,102.7,92.9,102.7,92.5,102.7z"/>
					
						<linearGradient id="SVGID_24_" gradientUnits="userSpaceOnUse" x1="146.4332" y1="31.6525" x2="146.4332" y2="76.6145" gradientTransform="matrix(1 0 0 -1 0 119.89)">
						<stop  offset="0" style="stop-color:#323031"/>
						<stop  offset="6.030000e-02" style="stop-color:#363536"/>
						<stop  offset="0.3799" style="stop-color:#49494A"/>
						<stop  offset="0.6954" style="stop-color:#545557"/>
						<stop  offset="1" style="stop-color:#58595B"/>
					</linearGradient>
					<path fill="url(#SVGID_24_)" d="M156.7,85.6c-2.3,1.2-4.7,1.9-7.2,2.2c-2.5,0.3-4.8,0.4-6.7,0.4c-3.9,0-7.3-1.1-10.2-3.2
						c-2.9-2.1-4.4-5.6-4.4-10.5c0-4.5,1.3-7.8,4-9.7c2.6-1.9,6-3.2,10.1-3.9c0.5,0,1.2-0.1,1.9-0.2c0.8-0.2,1.6-0.3,2.6-0.4
						c4.8-0.7,7.1-2.1,7.1-4.2c0-1.6-0.8-2.7-2.5-3.2c-1.7-0.5-3.2-0.7-4.6-0.7c-1.5,0-2.9,0.2-4.1,0.6c-1.2,0.4-2.1,1.2-2.6,2.4
						h-10.9c0.4-3.4,1.9-6.1,4.5-8.3c2.9-2.5,7.1-3.7,12.5-3.7c6.1,0,10.6,1,13.6,3.1c3.1,2.2,4.7,5.2,4.7,9.1v14.8
						c0,4.3-0.8,7.7-2.4,10.1C160.8,82.8,158.9,84.6,156.7,85.6z M154.1,65.7c-1.5,0.8-3.6,1.5-6.3,2.1l-3.7,0.8
						c-1.9,0.5-3.4,1.2-4.2,2.1c-0.8,1.2-1.1,2.4-1.1,3.6c0,1.6,0.5,2.9,1.5,3.9c1,0.9,2.4,1.3,4.2,1.3c3,0,5.4-0.9,7.1-2.6
						c1.7-1.7,2.6-4.1,2.6-7.1L154.1,65.7L154.1,65.7z"/>
					
						<linearGradient id="SVGID_25_" gradientUnits="userSpaceOnUse" x1="180.1563" y1="32.4635" x2="180.1563" y2="75.6405" gradientTransform="matrix(1 0 0 -1 0 119.89)">
						<stop  offset="0" style="stop-color:#323031"/>
						<stop  offset="6.030000e-02" style="stop-color:#363536"/>
						<stop  offset="0.3799" style="stop-color:#49494A"/>
						<stop  offset="0.6954" style="stop-color:#545557"/>
						<stop  offset="1" style="stop-color:#58595B"/>
					</linearGradient>
					<path fill="url(#SVGID_25_)" d="M168,87.4V66.5c0-4.2,0.6-7.8,1.9-10.6c1.2-2.9,2.9-5.2,5.1-6.9c2.1-1.6,4.5-2.8,7.2-3.6
						c2.8-0.8,5.6-1.1,8.5-1.1c0.2,0,0.5,0,0.8,0s0.6,0,0.8,0v11.5h-3.7c-3.1,0-5.5,0.8-7,2.3c-1.5,1.5-2.3,3.9-2.3,7.1v22.2H168z"
						/>
					
						<linearGradient id="SVGID_26_" gradientUnits="userSpaceOnUse" x1="214.4447" y1="31.6525" x2="214.4447" y2="88.4655" gradientTransform="matrix(1 0 0 -1 0 119.89)">
						<stop  offset="0" style="stop-color:#323031"/>
						<stop  offset="6.030000e-02" style="stop-color:#363536"/>
						<stop  offset="0.3799" style="stop-color:#49494A"/>
						<stop  offset="0.6954" style="stop-color:#545557"/>
						<stop  offset="1" style="stop-color:#58595B"/>
					</linearGradient>
					<path fill="url(#SVGID_26_)" d="M223.7,31.4h5.5c1.5,0,2.8,0.6,3.9,1.7c1.1,1.1,1.6,2.4,1.6,3.8v31.7c0,7.7-2.2,12.9-6.7,15.6
						c-4.4,2.7-9.3,4.1-14.4,4.1c-2.8,0-5.6-0.5-8.3-1.4c-2.7-0.9-4.9-2.4-6.5-4.5c-3.1-4-4.7-9.5-4.7-16.4c0-6.8,1.6-12.3,4.7-16.4
						c3.2-4.2,7.4-6.3,12.5-6.3c2.7,0,5.1,0.5,7.1,1.6c2.2,1.3,3.9,3,5.2,5L223.7,31.4L223.7,31.4z M205.2,65.5
						c0,4.3,0.8,7.6,2.4,9.9c1.6,2.3,3.9,3.4,7,3.4c2.9,0,5.2-1.1,6.8-3.4c1.5-2.3,2.3-5.6,2.3-9.9c0-3.9-0.8-7-2.4-9.3
						c-1.7-2.2-4.1-3.2-7-3.2c-2.8,0-5,1.1-6.7,3.4C206,58.6,205.2,61.6,205.2,65.5z"/>
				</g>
			</g>
			<g>
				<g>
					<defs>
						<path id="SVGID_27_" d="M238.6,72.6h11.3c0.1,2.2,0.9,3.9,2.5,5c1.7,1.1,3.9,1.7,6.6,1.7c2,0,3.7-0.4,5.2-1.2
							c1.3-0.8,2-1.8,2-3.2c0-2-2.3-3.5-7-4.5c-2-0.3-3.5-0.7-4.5-1c-5.9-1.4-9.8-3.2-11.8-5.2c-2.2-2-3.3-4.7-3.3-8
							c0-4.2,1.6-7.7,4.8-10.5c3.3-2.5,7.6-3.8,13-3.8c5.8,0,10.4,1.3,13.8,3.8c3.2,2.8,4.9,6.4,5.2,10.8h-7.1
							c-2.1,0-3.7-0.9-4.8-2.8c-0.4-0.4-0.9-0.9-1.3-1.3c-1.3-1-3.2-1.5-5.5-1.5c-2.2,0-3.9,0.3-5,1c-1,0.7-1.5,1.7-1.5,3
							c0,1.8,2.9,3.3,8.6,4.5c0.7,0.2,1.2,0.4,1.7,0.5c0.5,0.1,1,0.2,1.4,0.2c5.7,1.4,9.6,3.1,11.8,5c2.1,2,3.2,4.7,3.2,8
							c0,4.9-1.8,8.6-5.3,11.3c-3.3,2.4-8.3,3.7-15,3.7c-6.3,0-11-1.3-14.1-3.8c-3.2-2.5-4.8-6.3-4.8-11.1L238.6,72.6L238.6,72.6z
							 M92.5,102.7v-8.9h3.1c2.2,0,3.9-0.5,5.1-1.5c1.2-1,1.5-2.7,0.7-5l-15.1-43h12.5l8.8,30.5l7.6-26.6c0.6-2.6,2.4-3.9,5.2-3.9
							h7.8l-16.6,49.2c-1.3,3.6-2.9,6.1-4.9,7.6c-1.9,1.3-5.1,1.9-9.6,1.9c-0.3,0-0.7,0-1.1,0c-0.4,0-0.8,0-1.1,0
							c-0.3-0.1-0.7-0.2-1.2-0.2C93.3,102.7,92.9,102.7,92.5,102.7z M156.7,85.6c-2.3,1.2-4.7,1.9-7.2,2.2c-2.5,0.3-4.8,0.4-6.7,0.4
							c-3.9,0-7.3-1.1-10.2-3.2c-2.9-2.1-4.4-5.6-4.4-10.5c0-4.5,1.3-7.8,4-9.7c2.6-1.9,6-3.2,10.1-3.9c0.5,0,1.2-0.1,1.9-0.2
							c0.8-0.2,1.6-0.3,2.6-0.4c4.8-0.7,7.1-2.1,7.1-4.2c0-1.6-0.8-2.7-2.5-3.2c-1.7-0.5-3.2-0.7-4.6-0.7c-1.5,0-2.9,0.2-4.1,0.6
							c-1.2,0.4-2.1,1.2-2.6,2.4h-10.9c0.4-3.4,1.9-6.1,4.5-8.3c2.9-2.5,7.1-3.7,12.5-3.7c6.1,0,10.6,1,13.6,3.1
							c3.1,2.2,4.7,5.2,4.7,9.1v14.8c0,4.3-0.8,7.7-2.4,10.1C160.8,82.8,158.9,84.6,156.7,85.6z M154.1,65.7
							c-1.5,0.8-3.6,1.5-6.3,2.1l-3.7,0.8c-1.9,0.5-3.4,1.2-4.2,2.1c-0.8,1.2-1.1,2.4-1.1,3.6c0,1.6,0.5,2.9,1.5,3.9
							c1,0.9,2.4,1.3,4.2,1.3c3,0,5.4-0.9,7.1-2.6c1.7-1.7,2.6-4.1,2.6-7.1L154.1,65.7L154.1,65.7z M168,87.4V66.5
							c0-4.2,0.6-7.8,1.9-10.6c1.2-2.9,2.9-5.2,5.1-6.9c2.1-1.6,4.5-2.8,7.2-3.6c2.8-0.8,5.6-1.1,8.5-1.1c0.2,0,0.5,0,0.8,0
							s0.6,0,0.8,0v11.5h-3.7c-3.1,0-5.5,0.8-7,2.3c-1.5,1.5-2.3,3.9-2.3,7.1v22.2H168z M223.7,31.4h5.5c1.5,0,2.8,0.6,3.9,1.7
							c1.1,1.1,1.6,2.4,1.6,3.8v31.7c0,7.7-2.2,12.9-6.7,15.6c-4.4,2.7-9.3,4.1-14.4,4.1c-2.8,0-5.6-0.5-8.3-1.4
							c-2.7-0.9-4.9-2.4-6.5-4.5c-3.1-4-4.7-9.5-4.7-16.4c0-6.8,1.6-12.3,4.7-16.4c3.2-4.2,7.4-6.3,12.5-6.3c2.7,0,5.1,0.5,7.1,1.6
							c2.2,1.3,3.9,3,5.2,5L223.7,31.4L223.7,31.4z M205.2,65.5c0,4.3,0.8,7.6,2.4,9.9c1.6,2.3,3.9,3.4,7,3.4c2.9,0,5.2-1.1,6.8-3.4
							c1.5-2.3,2.3-5.6,2.3-9.9c0-3.9-0.8-7-2.4-9.3c-1.7-2.2-4.1-3.2-7-3.2c-2.8,0-5,1.1-6.7,3.4C206,58.6,205.2,61.6,205.2,65.5z"
							/>
					</defs>
					<clipPath id="SVGID_28_">
						<use xlink:href="#SVGID_27_"  overflow="visible"/>
					</clipPath>
					
						<linearGradient id="SVGID_29_" gradientUnits="userSpaceOnUse" x1="177.0938" y1="50.3485" x2="177.0938" y2="95.7625" gradientTransform="matrix(1 0 0 -1 0 119.89)">
						<stop  offset="0" style="stop-color:#FFFFFF"/>
						<stop  offset="0.7455" style="stop-color:#FFFFFF;stop-opacity:0.31"/>
					</linearGradient>
					
						<ellipse opacity="0.15" clip-path="url(#SVGID_28_)" fill="url(#SVGID_29_)" enable-background="new    " cx="177.1" cy="46.8" rx="108.3" ry="22.7"/>
				</g>
			</g>
		</g>
	</g>
</g>
</svg>
